<?xml version="1.0" encoding="UTF-8" standalone="no"?>
<svg
   xmlns:dc="http://purl.org/dc/elements/1.1/"
   xmlns:cc="http://creativecommons.org/ns#"
   xmlns:rdf="http://www.w3.org/1999/02/22-rdf-syntax-ns#"
   xmlns:svg="http://www.w3.org/2000/svg"
   xmlns="http://www.w3.org/2000/svg"
   xmlns:sodipodi="http://sodipodi.sourceforge.net/DTD/sodipodi-0.dtd"
   xmlns:inkscape="http://www.inkscape.org/namespaces/inkscape"
   version="1.1"
   id="Layer_1"
   x="0px"
   y="0px"
   viewBox="0 0 250 250"
   style="enable-background:new 0 0 250 250;"
   xml:space="preserve"
   sodipodi:docname="tspaint.svg"
   inkscape:version="1.0.1 (c497b03c, 2020-09-10)"><metadata
   id="metadata33"><rdf:RDF><cc:Work
       rdf:about=""><dc:format>image/svg+xml</dc:format><dc:type
         rdf:resource="http://purl.org/dc/dcmitype/StillImage" /><dc:title></dc:title></cc:Work></rdf:RDF></metadata><defs
   id="defs31" /><sodipodi:namedview
   pagecolor="#ffffff"
   bordercolor="#666666"
   borderopacity="1"
   objecttolerance="10"
   gridtolerance="10"
   guidetolerance="10"
   inkscape:pageopacity="0"
   inkscape:pageshadow="2"
   inkscape:window-width="1279"
   inkscape:window-height="937"
   id="namedview29"
   showgrid="false"
   showguides="false"
   inkscape:zoom="1.39"
   inkscape:cx="91.733448"
   inkscape:cy="211.96833"
   inkscape:window-x="421"
   inkscape:window-y="25"
   inkscape:window-maximized="0"
   inkscape:current-layer="g26"
   inkscape:document-rotation="0" />
<style
   type="text/css"
   id="style18">
	.st0{fill:#DD0031;}
	.st1{fill:#C3002F;}
	.st2{fill:#FFFFFF;}
</style>
<g
   id="g26">
	
	
	
<path
   d="m 167.1485,121.50353 h 58.37639 v 26.63982 H 167.1485 Z"
   fill="#2f4859"
   id="path1028"
   style="stroke-width:0.47099" /><path
   d="m 238.94662,111.61846 c 0,0 6.93658,0.70246 6.79413,3.62751 -0.61799,11.0646 -3.33717,21.92822 -8.02522,32.05803 h -9.06623 z"
   fill="#3a556a"
   id="path1030"
   style="stroke-width:0.47099" /><path
   d="m 196.64424,129.66519 c -12.11939,0 -21.94458,9.4094 -21.94458,21.01696 0,11.60755 9.82469,21.01695 21.94458,21.01695 12.1194,0 21.94457,-9.4094 21.94457,-21.01695 0,-0.008 0,-0.0155 0,-0.0226 0,-11.59466 -9.8146,-20.99438 -21.921,-20.99438 -0.007,0 -0.0161,0 -0.0234,0 z"
   fill="#3a556a"
   id="path1032"
   style="stroke-width:0.47099" /><path
   d="m 196.64424,138.2122 c -7.1907,-0.0125 -13.03045,5.55971 -13.04344,12.44691 -0.0125,6.88671 5.8051,12.47962 12.99629,12.49208 7.19067,0.0125 13.03042,-5.55973 13.04343,-12.44691 0,-0.0155 0,-0.0305 0,-0.0453 0,-6.87383 -5.81908,-12.44692 -12.99628,-12.44692 z"
   fill="#ebf0f3"
   id="path1034"
   style="stroke-width:0.47099" /><path
   d="m 196.64424,146.51074 c -2.45738,0 -4.45033,1.9087 -4.45033,4.26221 0,2.35349 1.99295,4.2622 4.45033,4.2622 2.45736,0 4.45033,-1.90871 4.45033,-4.2622 0,-2.35442 -1.99199,-4.26221 -4.45033,-4.26221 z"
   fill="#3a556a"
   id="path1036"
   style="stroke-width:0.47099" /><path
   d="m 234.25998,147.12284 -7.812,1.49666 c -1.65078,0.30835 -3.30058,-0.5333 -3.95317,-2.01796 l -4.73427,-11.33606 c -1.57329,-3.67776 -5.31952,-6.07273 -9.46855,-6.05337 h -21.61346 c -4.44839,-0.0184 -8.39145,2.73837 -9.72939,6.80191 l -5.16021,16.09699 c -1.37354,4.12669 -5.42056,6.89596 -9.9426,6.80192 l -77.290398,-1.5418 c -4.664974,-0.0955 -8.665302,-3.2159 -9.705808,-7.57258 l -1.112218,-4.53416 c -1.068904,-4.42077 -5.181391,-7.55045 -9.919028,-7.54999 H 43.033696 c -3.510392,-0.0173 -6.782555,1.6962 -8.663845,4.53413 l -4.261192,6.75583 c -1.84328,2.89186 -5.126986,4.65307 -8.663869,4.64756 H 4.8731404 c 0,0 0,-8.16168 1.704678,-26.95695 1.704662,-18.79525 30.2537176,-22.03698 30.2537176,-22.03698 v -0.43051 c 0,-0.20418 0,-0.49871 0.165584,-0.83935 v -0.38532 c 0.876402,-3.219606 3.811205,-10.79219 13.730226,-19.973878 13.208988,-12.242713 68.650104,-13.03643 83.966584,-10.202176 3.16919,0.697388 6.13623,2.060332 8.68793,3.990238 1.8168,4.195851 4.02729,8.22528 6.60451,12.038543 3.4565,4.398164 9.11434,7.118558 10.72371,9.862477 0.52072,0.906628 1.84664,1.791166 2.10701,2.267296 0.26662,0.50934 0.80228,0.83936 1.39666,0.86194 25.07424,1.16016 49.99404,4.42261 74.47348,9.7491 7.92944,10.63269 -4.42723,35.52649 -4.42723,35.52649 z"
   fill="#fcd462"
   id="path1038"
   style="stroke-width:0.47099" /><path
   d="m 5.2052184,147.48515 0.165591,-3.78607 c -1.414472,-0.0155 -2.638344,0.93845 -2.912177,2.26732 v 5.46383 c -0.01254,1.49017 1.237822,2.70795 2.793296,2.72041 h 0.02352 8.0488056 v -6.57469 c -2.704752,0.1862 -5.4205636,0.15584 -8.1190686,-0.0907 z"
   fill="#3a556a"
   id="path1040"
   style="stroke-width:0.47099" /><path
   d="m 228.15216,143.94844 h 8.30916 c 1.45104,0 2.62775,1.12651 2.62775,2.51667 v 1.70037 c 0,1.3897 -1.17623,2.51667 -2.62775,2.51667 h -8.30916 c -1.45103,0 -2.62775,-1.12651 -2.62775,-2.51667 v -1.70037 c 6.3e-4,-1.39016 1.17672,-2.51667 2.62775,-2.51667 z"
   fill="#3a556a"
   id="path1042"
   style="stroke-width:0.47099" /><path
   d="M 155.47766,103.07148 137.74664,80.17256 c -1.77688,-2.29681 -4.54514,-3.697105 -7.52808,-3.8091 l -28.69105,-1.042624 c -23.979862,0.385325 -35.816274,5.599808 -41.521754,9.907645 -6.273382,4.738347 -6.770039,9.318123 -6.793624,9.522319 v 31.3551 c 0.01262,3.17165 2.70138,5.73626 6.013016,5.73578 h 12.641087 c 4.755941,0.01 8.982457,2.90433 10.534083,7.20985 l 3.645639,10.0888 h 64.933253 c 3.08929,-0.0125 5.58708,-2.4148 5.58708,-5.37351 v -37.49926 c 0.005,-1.14957 -0.37634,-2.271 -1.08863,-3.19608 z m -72.484897,35.86668 c -1.654611,-4.53278 -6.112161,-7.57583 -11.126528,-7.59518 H 59.225148 c -2.968007,3.4e-4 -5.373885,-2.30326 -5.374376,-5.14582 0,-0.0303 0,-0.0609 3.2e-4,-0.0917 V 94.795493 c 0,-0.271965 0.662707,-4.670129 6.604494,-9.068293 5.941786,-4.398181 17.256976,-9.318132 40.764244,-9.726058 l 3.33811,72.686078 H 86.495787 Z m 72.958487,4.91948 c 0,2.62959 -2.22541,4.76093 -4.97107,4.76093 h -45.83012 l -3.28999,-72.686095 28.4071,1.042623 c 2.81064,0.06365 5.43308,1.369421 7.10214,3.536704 l 17.49378,22.921488 c 0.64201,0.81725 0.99045,1.81099 0.99381,2.83382 z"
   fill="#f7be56"
   id="path1044"
   style="stroke-width:0.47099" /><g
   fill="#3a556a"
   id="g1054"
   transform="matrix(0.48127216,0,0,0.46092826,2.4586094,5.0822691)"><path
     d="m 214.949,170.142 0.934,33.989 c 0.157,2.763 2.445,4.924 5.214,4.919 h 68.862 c 2.88,-0.027 5.191,-2.383 5.164,-5.263 -0.009,-0.957 -0.281,-1.893 -0.787,-2.706 l -21.249,-33.349 c -0.944,-1.481 -2.572,-2.388 -4.328,-2.411 l -48.597,-0.59 c -2.71,-0.177 -5.052,1.877 -5.229,4.587 -0.017,0.275 -0.013,0.55 0.016,0.824 z"
     id="path1046" /><path
     d="m 194.044,204.031 -1.77,-33.939 c 0,-2.716 -2.202,-4.919 -4.919,-4.919 -14.757,-0.885 -60.795,-0.492 -72.453,36.742 -0.422,1.396 -0.262,2.904 0.443,4.181 l 1.919,3.296 c 0.943,1.802 2.897,2.838 4.919,2.606 l 67.092,-2.509 c 2.8,-0.233 4.912,-2.648 4.769,-5.458 z"
     id="path1048" /><path
     d="m 333.737,208.066 c -8.854,-13.28 -29.513,-42.498 -40.382,-52.434 -0.59,0 -8.214,0 -6.1,4.525 1.672,3.738 16.085,19.674 24.594,31.824 5.386,7.566 13.058,13.203 21.888,16.085 z"
     id="path1050" /><path
     d="m 105.458,270.287 c -25.182,0 -45.597,20.414 -45.597,45.597 0,25.183 20.414,45.597 45.597,45.597 25.183,0 45.597,-20.414 45.597,-45.597 0,-0.016 0,-0.033 0,-0.049 0,-25.155 -20.393,-45.548 -45.548,-45.548 -0.016,0 -0.032,0 -0.049,0 z"
     id="path1052" /></g><path
   d="m 53.2126,138.2122 c -7.190668,0 -13.019852,5.58322 -13.019852,12.46949 0,6.88673 5.829643,12.4695 13.019852,12.4695 7.190208,0 13.019859,-5.58324 13.019859,-12.4695 0,-0.008 0,-0.0155 0,-0.0226 0,-6.87384 -5.818583,-12.44691 -12.996275,-12.44691 -0.007,0 -0.0162,0 -0.02352,0 z"
   fill="#ebf0f3"
   id="path1056"
   style="stroke-width:0.47099" /><path
   d="m 53.2126,146.51074 c -2.457362,0 -4.450306,1.9087 -4.450306,4.26221 0,2.35349 1.992944,4.2622 4.450306,4.2622 2.457385,0 4.450329,-1.90871 4.450329,-4.2622 0,-2.35442 -1.991994,-4.26221 -4.450329,-4.26221 z"
   fill="#3a556a"
   id="path1058"
   style="stroke-width:0.47099" /></g>
</svg>
